<svg width="71" height="95" viewBox="0 0 71 95" fill="none" xmlns="http://www.w3.org/2000/svg">
<path fill-rule="evenodd" clip-rule="evenodd" d="M35.0114 0C54.3474 0 70.0234 15.676 70.0234 35.012C70.0234 51.821 53.9064 74.973 41.2734 91.867C39.75 93.9022 37.5625 95.0037 35.0117 95.0037C32.4609 95.0037 30.2734 93.906 28.75 91.867C16.117 74.972 0 51.824 0 35.012C0 15.676 15.6754 0 35.0114 0ZM35.0114 18.172C44.3122 18.172 51.8514 25.7111 51.8514 35.012C51.8514 44.3129 44.3123 51.852 35.0114 51.852C25.7105 51.852 18.1714 44.3129 18.1714 35.012C18.1714 25.7111 25.7105 18.172 35.0114 18.172Z" fill="black"/>
</svg>
